<?xml version="1.0" encoding="windows-1252"?>
<!-- Generator: Adobe Illustrator 16.0.0, SVG Export Plug-In . SVG Version: 6.00 Build 0)  -->
<!DOCTYPE svg PUBLIC "-//W3C//DTD SVG 1.1//EN" "http://www.w3.org/Graphics/SVG/1.1/DTD/svg11.dtd">
<svg version="1.1" id="Capa_1" xmlns="http://www.w3.org/2000/svg" xmlns:xlink="http://www.w3.org/1999/xlink" x="0px" y="0px" width="588.601px" height="588.6px" viewBox="0 0 588.601 588.6" style="enable-background:new 0 0 588.601 588.6;" xml:space="preserve">
<g>
	<path d="M157.13,263.919c-16.938,0.264-26.702,17.052-26.702,39.293c0,22.417,10.114,38.306,26.871,38.475   c17.112,0.18,27.005-16.675,27.005-39.308C184.304,281.464,174.588,263.643,157.13,263.919z"/>
	<path d="M577.373,86.999c0-20.838-16.954-37.8-37.8-37.8h-178.2c-0.786,0-1.561,0.076-2.342,0.124V0L11.228,46.417v494.564   L359.031,588.6v-50.814c0.781,0.053,1.551,0.115,2.342,0.115h178.2c20.846,0,37.8-16.964,37.8-37.8V86.999z M359.031,375.369   c0.417,0.259,0.881,0.448,1.403,0.448h138.602c1.492,0,2.7-1.213,2.7-2.7c0-1.497-1.208-2.7-2.7-2.7H360.435   c-0.522,0-0.986,0.19-1.403,0.448v-27c0.417,0.259,0.881,0.448,1.403,0.448h138.602c1.492,0,2.7-1.202,2.7-2.699   c0-1.487-1.208-2.7-2.7-2.7H360.435c-0.522,0-0.986,0.189-1.403,0.448v-32.4c0.417,0.259,0.881,0.448,1.403,0.448h138.602   c1.492,0,2.7-1.202,2.7-2.7c0-1.486-1.208-2.699-2.7-2.699H360.435c-0.522,0-0.986,0.189-1.403,0.447v-26.989   c0.417,0.262,0.881,0.448,1.403,0.448h138.602c1.492,0,2.7-1.215,2.7-2.7c0-1.495-1.208-2.7-2.7-2.7H360.435   c-0.522,0-0.986,0.189-1.403,0.448v-26.099h166.557v162H359.031V375.369z M101.161,359.617l-65.509-1.055V247.751l23.459-0.514   v90.495l42.05,0.369V359.617z M155.965,362.401c-32.648-0.554-51.435-26.282-51.435-58.604c0-33.998,20.735-59.891,53.259-60.626   c34.61-0.783,53.85,25.819,53.85,58.248C211.634,339.968,188.85,362.96,155.965,362.401z M240,347.098   c-10.773-10.305-16.659-25.762-16.482-43.09c0.158-39.21,28.561-62.261,67.927-63.152c15.749-0.345,28,2.434,34.059,5.194   l-5.906,22.162c-6.771-2.803-15.146-5.002-28.54-4.796c-22.723,0.355-39.675,13.323-39.675,39.121   c0,24.553,15.364,39.182,37.692,39.402c6.357,0.063,11.391-0.601,13.584-1.661v-25.328l-18.778-0.011v-21.252l44.608-0.258v64.609   c-8.87,2.727-24.438,6.145-39.928,5.891C266.557,363.551,250.847,357.808,240,347.098z M555.773,500.101   c0,8.928-7.268,16.2-16.2,16.2h-178.2c-0.796,0-1.571-0.116-2.342-0.232v-93.013h163.852c8.949,0,16.2-7.245,16.2-16.2v-210.6   c0-8.941-7.251-16.2-16.2-16.2h-15.299v26.104c0,4.725-3.828,8.554-8.548,8.554c-4.725,0-8.548-3.829-8.548-8.554v-26.104h-27   v26.104c0,4.725-3.829,8.554-8.549,8.554c-4.725,0-8.548-3.829-8.548-8.554v-26.104H413.09v26.104c0,4.725-3.829,8.554-8.549,8.554   c-4.725,0-8.548-3.829-8.548-8.554v-26.104h-27v26.104c0,4.725-3.828,8.554-8.548,8.554c-0.48,0-0.944-0.063-1.403-0.14v-34.518   h9.951v-2.7c0-4.714-3.828-8.543-8.548-8.543c-0.48,0-0.944,0.066-1.403,0.14V71.042c0.771-0.114,1.54-0.243,2.342-0.243h178.2   c8.933,0,16.199,7.27,16.199,16.2v413.103H555.773z"/>
	<path d="M404.536,168.813c-4.725,0-8.548,3.829-8.548,8.543v2.7h17.102v-2.7C413.084,172.642,409.256,168.813,404.536,168.813z"/>
	<path d="M454.935,168.813c-4.726,0-8.549,3.829-8.549,8.543v2.7h17.103v-2.7C463.482,172.642,459.654,168.813,454.935,168.813z"/>
	<path d="M499.036,168.813c-4.725,0-8.548,3.829-8.548,8.543v2.7h17.102v-2.7C507.584,172.642,503.756,168.813,499.036,168.813z"/>
</g>
<g>
</g>
<g>
</g>
<g>
</g>
<g>
</g>
<g>
</g>
<g>
</g>
<g>
</g>
<g>
</g>
<g>
</g>
<g>
</g>
<g>
</g>
<g>
</g>
<g>
</g>
<g>
</g>
<g>
</g>
</svg>