<?xml version="1.0" encoding="UTF-8"?>
<!-- Svg Vector Icons : http://www.onlinewebfonts.com/icon -->
<!DOCTYPE svg PUBLIC "-//W3C//DTD SVG 1.1//EN" "http://www.w3.org/Graphics/SVG/1.1/DTD/svg11.dtd">
<svg version="1.1" xmlns="http://www.w3.org/2000/svg" xmlns:xlink="http://www.w3.org/1999/xlink" x="0px" y="0px" viewBox="0 0 1000 1000" enable-background="new 0 0 1000 1000" xml:space="preserve">
<metadata> Svg Vector Icons : http://www.onlinewebfonts.com/icon </metadata>
<g><path d="M147.2,251.1h470.4v58.8H147.2V251.1L147.2,251.1z"/><path d="M147.2,388.3h470.4v58.8H147.2V388.3L147.2,388.3z"/><path d="M147.2,523.5H500v58.8H147.2V523.5z"/><path d="M972.9,194.2l-63.2-36.5c-17.5-10.1-40.6-4.6-50.7,12.9l-19.7,34.2l125.6,72.5l19.7-34.2C994.7,225.7,990.4,204.3,972.9,194.2z"/><path d="M831.5,218.3l-47.3,81.9V141.3c0-44.7-25.9-80.4-60.1-80.4h-65.3V26.6c0-9.6-8.8-16.6-19.6-16.6h-9.8h-9.8h-9.8c-10.8,0-19.6,7.1-19.6,16.6V61h-60.8V26.6c0-9.6-8.8-16.6-19.6-16.6H500h-9.8h-9.8c-10.8,0-19.6,7.1-19.6,16.6V61h-88.2V26.6c0-9.6-8.8-16.6-19.6-16.6h-9.8h-9.8h-9.8c-10.8,0-19.6,7.1-19.6,16.6V61h-88.2V26.6c0-9.6-8.8-16.6-19.6-16.6h-9.8h-9.8h-9.8c-10.8,0-19.6,7.1-19.6,16.6V61H73.8C39.6,61,10,96.6,10,141.3V909c0,44.7,29.6,81,63.8,81h650.3c34.2,0,60.1-36.3,60.1-81V627.4v-17.6v-19.4l172.9-299.5L831.5,218.3z M837.6,321.4l27.2,15.7l-223.4,387l-27.2-15.7L837.6,321.4z M674.4,931.2H122.9c-29,0-54.1-31.7-54.1-70.8V190c0-39.1,25.1-70.2,54.1-70.2h24.3v45.4c0,9.6,8.8,17.3,19.6,17.3h9.8h9.8h9.8c10.8,0,19.6-7.8,19.6-17.3v-45.4H304v45.4c0,9.6,8.8,17.3,19.6,17.3h9.8h9.8h9.8c10.8,0,19.6-7.8,19.6-17.3v-45.4h88.2v45.4c0,9.6,8.8,17.3,19.6,17.3h9.8h9.8h9.8c10.8,0,19.6-7.8,19.6-17.3v-45.4h60.8v45.4c0,9.6,8.8,17.3,19.6,17.3h9.8h9.8h9.8c10.8,0,19.6-7.8,19.6-17.3v-45.4h15.7c29,0,51,31.1,51,70.2v147.4v3.9v60.8L514.9,766.6l125.6,72.5l84.9-147v168.3C725.4,899.5,703.4,931.2,674.4,931.2z"/><path d="M514.9,912.7l115.4-56.9l-123.9-71.5L514.9,912.7z"/></g>
</svg>