<?xml version="1.0" encoding="UTF-8" standalone="no"?>
<!-- Created with Inkscape (http://www.inkscape.org/) -->

<svg
   xmlns:dc="http://purl.org/dc/elements/1.1/"
   xmlns:cc="http://creativecommons.org/ns#"
   xmlns:rdf="http://www.w3.org/1999/02/22-rdf-syntax-ns#"
   xmlns:svg="http://www.w3.org/2000/svg"
   xmlns="http://www.w3.org/2000/svg"
   xmlns:sodipodi="http://sodipodi.sourceforge.net/DTD/sodipodi-0.dtd"
   xmlns:inkscape="http://www.inkscape.org/namespaces/inkscape"
   width="16.933329mm"
   height="16.941286mm"
   viewBox="0 0 16.933329 16.941286"
   version="1.1"
   id="svg3724"
   inkscape:version="0.92.1 r15371"
   sodipodi:docname="motor_rpm.svg">
  <defs
     id="defs3718" />
  <sodipodi:namedview
     id="base"
     pagecolor="#ffffff"
     bordercolor="#666666"
     borderopacity="1.0"
     inkscape:pageopacity="0.0"
     inkscape:pageshadow="2"
     inkscape:zoom="2.8"
     inkscape:cx="94.300656"
     inkscape:cy="41.416718"
     inkscape:document-units="mm"
     inkscape:current-layer="layer1"
     showgrid="true"
     inkscape:window-width="1598"
     inkscape:window-height="822"
     inkscape:window-x="0"
     inkscape:window-y="26"
     inkscape:window-maximized="1">
    <inkscape:grid
       type="xygrid"
       id="grid3750"
       originx="-96.610726"
       originy="-165.39839" />
  </sodipodi:namedview>
  <metadata
     id="metadata3721">
    <rdf:RDF>
      <cc:Work
         rdf:about="">
        <dc:format>image/svg+xml</dc:format>
        <dc:type
           rdf:resource="http://purl.org/dc/dcmitype/StillImage" />
        <dc:title></dc:title>
      </cc:Work>
    </rdf:RDF>
  </metadata>
  <g
     inkscape:label="Layer 1"
     inkscape:groupmode="layer"
     id="layer1"
     transform="translate(-96.610722,-114.66031)">
    <g
       id="g22"
       style="image-rendering:optimizeSpeed"
       transform="matrix(0.01727905,0,0,0.01727905,96.437869,114.49141)">
      <g
         transform="matrix(0.1,0,0,-0.1,0,512)"
         id="g20">
        <path
           d="M 4526.1,5009.2 C 3048.2,4857.8 1733.3,4066.1 899.5,2822.1 592.8,2362.1 305.3,1677.8 196,1139.1 113.6,725.1 98.2,575.6 100.2,113.6 c 0,-500.3 34.5,-785.9 149.5,-1226.8 90.1,-343.1 178.3,-580.8 356.5,-939.2 956.5,-1936 3072.7,-3019 5204.2,-2662.5 1500.9,251.1 2831.2,1221 3538.4,2582 347,670.9 519.5,1332.2 548.2,2093.2 46,1326.4 -446.6,2605 -1374.4,3563.4 -772.4,797.3 -1727,1288 -2836.8,1458.6 -239.6,36.5 -914.4,53.7 -1159.7,26.9 z m 1083,-776.3 C 6950.9,4029.7 8125.9,3171 8720.1,1957.6 8913.7,1564.7 9023,1217.7 9101.6,755.7 c 57.5,-341.2 57.5,-923.9 0,-1265.1 -134.2,-789.7 -439,-1454.9 -939.2,-2051 -531,-634.5 -1303.4,-1123.3 -2104.7,-1332.2 -383.4,-99.7 -636.4,-130.3 -1061.9,-130.3 -425.5,0 -678.5,30.7 -1061.9,130.3 -799.3,208.9 -1569.9,693.9 -2106.6,1332.2 -1259.4,1497 -1316.9,3622.8 -139.9,5194.6 174.4,233.9 563.5,623 797.4,797.4 621,463.9 1353.3,753.3 2118.1,831.9 231.8,23 758.9,7.7 1006.2,-30.6 z"
           id="path4"
           inkscape:connector-curvature="0" />
        <path
           d="M 4643,3207.4 C 4108.2,3151.8 3515.9,2929.5 3078.9,2620.8 2670.6,2331.4 2273.8,1867.5 2041.9,1401.7 1672,667.5 1608.7,-239.1 1869.4,-1011.6 c 61.3,-182.1 157.2,-404.4 168.7,-392.9 3.8,3.8 -11.5,49.8 -32.6,101.6 -69,161 -153.3,486.9 -182.1,713.1 -99.7,762.9 72.8,1493.2 509.9,2150.7 170.6,256.9 538.6,623 808.9,803.1 918.2,609.6 2054.8,682.4 3020.9,193.6 l 122.7,-61.3 139.9,151.4 c 76.7,82.4 139.9,157.2 141.8,164.8 0,24.9 -335.4,178.3 -527.1,239.6 -456.2,149.5 -941.2,203.2 -1397.4,155.3 z"
           id="path6"
           inkscape:connector-curvature="0" />
        <path
           d="M 6163.1,1875.2 C 5204.6,849.7 4999.6,640.7 4967,648.4 c -23,5.8 -95.8,1.9 -162.9,-9.6 -331.6,-53.7 -584.6,-306.7 -628.7,-628.7 -46,-337.4 109.3,-632.6 414,-782.1 136.1,-69 155.3,-72.8 318.2,-70.9 245.4,1.9 364.2,49.8 531,216.6 159.1,159.1 214.7,287.5 216.6,500.3 0,78.6 -1.9,170.6 -5.8,201.3 -5.7,47.9 139.9,318.2 803.2,1485.5 444.7,785.9 826.1,1456.8 847.2,1491.3 21.1,32.6 34.5,61.3 28.8,61.3 -3.9,0 -529.1,-555.8 -1165.5,-1238.2 z"
           id="path8"
           inkscape:connector-curvature="0" />
        <path
           d="m 7148.3,2103.3 c -97.8,-170.6 -115,-212.8 -95.8,-237.7 13.4,-17.3 80.5,-107.3 153.3,-201.3 141.9,-187.8 329.7,-548.2 404.5,-782.1 105.4,-322 134.2,-509.9 134.2,-893.2 0,-513.7 -72.9,-833.8 -293.3,-1274.7 -63.3,-126.5 -113.1,-230 -111.2,-231.9 1.9,-1.9 99.7,-57.5 214.7,-122.7 116.9,-65.2 247.3,-139.9 293.3,-166.8 l 82.4,-46 93.9,197.5 c 116.9,247.3 214.7,540.5 272.2,824.2 38.3,189.7 44.1,270.3 44.1,667.1 -1.9,394.9 -7.7,475.4 -46,651.7 -101.6,469.6 -312.4,958.4 -567.4,1313 -118.8,166.8 -419.8,508 -448.6,508 -7.6,0 -67,-92 -130.3,-205.1 z"
           id="path10"
           inkscape:connector-curvature="0" />
        <path
           d="m 3462.3,-2541.2 v -172.5 h 182.1 182.1 v 172.5 172.5 h -182.1 -182.1 z"
           id="path12"
           inkscape:connector-curvature="0" />
        <path
           d="m 4286.5,-2541.2 v -172.5 h 172.5 172.5 v 172.5 172.5 H 4459 4286.5 Z"
           id="path14"
           inkscape:connector-curvature="0" />
        <path
           d="m 5091.6,-2541.2 v -172.5 h 182.1 182.1 v 172.5 172.5 h -182.1 -182.1 z"
           id="path16"
           inkscape:connector-curvature="0" />
        <path
           d="m 5915.8,-2541.2 v -172.5 h 182.1 182.1 v 172.5 172.5 h -182.1 -182.1 z"
           id="path18"
           inkscape:connector-curvature="0" />
      </g>
    </g>
  </g>
</svg>
